<svg xmlns="http://www.w3.org/2000/svg" viewBox="0 0 500 500">
    <!-- Gradient Definitions -->
    <defs>
        <!-- Background gradient -->
        <linearGradient id="bgGradient" x1="0%" y1="0%" x2="100%" y2="100%">
            <stop offset="0%" style="stop-color:#1a365d"/>
            <stop offset="100%" style="stop-color:#2d3748"/>
        </linearGradient>
        
        <!-- Node gradient -->
        <linearGradient id="nodeGradient" x1="0%" y1="0%" x2="100%" y2="100%">
            <stop offset="0%" style="stop-color:#4299e1"/>
            <stop offset="100%" style="stop-color:#3182ce"/>
        </linearGradient>
        
        <!-- Golden gradient -->
        <linearGradient id="goldGradient" x1="0%" y1="0%" x2="100%" y2="100%">
            <stop offset="0%" style="stop-color:#f6e05e"/>
            <stop offset="100%" style="stop-color:#d69e2e"/>
        </linearGradient>

        <!-- Glow filter -->
        <filter id="glow" x="-50%" y="-50%" width="200%" height="200%">
            <feGaussianBlur stdDeviation="3" result="blur"/>
            <feMerge>
                <feMergeNode in="blur"/>
                <feMergeNode in="SourceGraphic"/>
            </feMerge>
        </filter>
    </defs>

    <!-- Main background circle with subtle gradient -->
    <circle cx="250" cy="250" r="240" fill="url(#bgGradient)"/>
    
    <!-- Decorative outer ring -->
    <circle cx="250" cy="250" r="235" fill="none" stroke="#4299e1" stroke-width="2" 
            stroke-dasharray="4,4"/>

    <!-- Abstract network pattern -->
    <g transform="translate(250 250)">
        <!-- Rotating hexagonal pattern -->
        <g transform="rotate(30)">
            <path d="M-120,-69.28 L-120,69.28 L0,138.56 L120,69.28 L120,-69.28 L0,-138.56 Z" 
                  fill="none" stroke="#4299e1" stroke-width="2" opacity="0.3"/>
            <path d="M-100,-57.74 L-100,57.74 L0,115.47 L100,57.74 L100,-57.74 L0,-115.47 Z" 
                  fill="none" stroke="#4299e1" stroke-width="2" opacity="0.5"/>
            <path d="M-80,-46.19 L-80,46.19 L0,92.38 L80,46.19 L80,-46.19 L0,-92.38 Z" 
                  fill="none" stroke="#4299e1" stroke-width="2" opacity="0.7"/>
        </g>
    </g>

    <!-- Connected nodes with glowing effect -->
    <g filter="url(#glow)">
        <!-- Dynamic connection lines -->
        <path d="M170,200 Q250,150 330,200 T330,300 Q250,350 170,300 T170,200" 
              fill="none" stroke="url(#nodeGradient)" stroke-width="3"/>
        
        <!-- Intersection nodes -->
        <circle cx="170" cy="200" r="12" fill="url(#nodeGradient)"/>
        <circle cx="250" cy="150" r="12" fill="url(#nodeGradient)"/>
        <circle cx="330" cy="200" r="12" fill="url(#nodeGradient)"/>
        <circle cx="330" cy="300" r="12" fill="url(#nodeGradient)"/>
        <circle cx="250" cy="350" r="12" fill="url(#nodeGradient)"/>
        <circle cx="170" cy="300" r="12" fill="url(#nodeGradient)"/>
    </g>

    <!-- Stylized academic symbol in center -->
    <g transform="translate(250,250) scale(0.8)">
        <!-- Modern graduation cap -->
        <path d="M-60,-20 L0,-40 L60,-20 L0,0 Z" fill="url(#goldGradient)" filter="url(#glow)"/>
        <path d="M-30,0 L0,15 L30,0 L0,-15 Z" fill="url(#goldGradient)" filter="url(#glow)"/>
        <rect x="-3" y="-40" width="6" height="30" fill="url(#goldGradient)" filter="url(#glow)"/>
    </g>

    <!-- DNA helix symbol (representing research) -->
    <g transform="translate(250,250) rotate(45)">
        <path d="M-100,-20 Q-50,0 0,-20 T100,-20" 
              fill="none" stroke="#4299e1" stroke-width="2" opacity="0.6"/>
        <path d="M-100,20 Q-50,0 0,20 T100,20" 
              fill="none" stroke="#4299e1" stroke-width="2" opacity="0.6"/>
    </g>

    <!-- Text with sophisticated styling -->
    <g transform="translate(250,400)">
        <text text-anchor="middle" font-family="Arial, sans-serif" font-weight="bold">
            <tspan x="0" y="0" font-size="36" fill="white" letter-spacing="2">NEXUS</tspan>
            <tspan x="0" y="35" font-size="24" fill="#4299e1" letter-spacing="4">SCHOLAR</tspan>
        </text>
    </g>

    <!-- Decorative dots -->
    <g fill="#4299e1" opacity="0.5">
        <circle cx="130" cy="130" r="3"/>
        <circle cx="370" cy="130" r="3"/>
        <circle cx="130" cy="370" r="3"/>
        <circle cx="370" cy="370" r="3"/>
    </g>
</svg>
